<?xml version="1.0" standalone="no"?>
<!DOCTYPE svg PUBLIC "-//W3C//DTD SVG 20010904//EN"
 "http://www.w3.org/TR/2001/REC-SVG-20010904/DTD/svg10.dtd">
<svg version="1.0" xmlns="http://www.w3.org/2000/svg"
 width="24.000000pt" height="24.000000pt" viewBox="0 0 24.000000 24.000000"
 preserveAspectRatio="xMidYMid meet">

<g transform="translate(0.000000,24.000000) scale(0.100000,-0.100000)"
fill="#000000" stroke="none">
<path d="M110 210 c0 -25 -4 -30 -23 -30 -55 0 -79 -85 -33 -115 14 -9 39 -15
58 -13 l33 3 3 93 c3 87 2 92 -18 92 -16 0 -20 -6 -20 -30z m0 -90 c0 -32 -26
-43 -36 -15 -9 21 3 45 21 45 10 0 15 -10 15 -30z"/>
<path d="M170 220 c0 -13 7 -20 20 -20 13 0 20 7 20 20 0 13 -7 20 -20 20 -13
0 -20 -7 -20 -20z"/>
<path d="M170 111 c0 -50 -4 -72 -16 -82 -14 -11 -14 -13 1 -22 12 -6 22 -4
36 9 15 14 19 31 19 91 0 66 -2 73 -20 73 -18 0 -20 -7 -20 -69z"/>
</g>
</svg>
