<?xml version="1.0" standalone="no"?>
<!DOCTYPE svg PUBLIC "-//W3C//DTD SVG 20010904//EN"
 "http://www.w3.org/TR/2001/REC-SVG-20010904/DTD/svg10.dtd">
<svg version="1.0" xmlns="http://www.w3.org/2000/svg"
 width="512.000000pt" height="512.000000pt" viewBox="0 0 512.000000 512.000000"
 preserveAspectRatio="xMidYMid meet">

<g transform="translate(0.000000,512.000000) scale(0.100000,-0.100000)"
fill="#000000" stroke="none">
<path d="M2355 5109 c-133 -6 -433 -41 -440 -51 -1 -2 -131 -155 -288 -340
l-287 -337 0 -205 0 -206 610 0 610 0 0 -80 0 -80 -854 0 -853 0 -399 -467
-398 -467 -9 -61 c-14 -90 -13 -387 2 -495 20 -147 69 -375 102 -475 81 -241
218 -401 405 -473 67 -25 76 -26 346 -30 l277 -4 3 344 c4 326 5 346 27 413
44 134 98 223 196 321 101 102 187 158 310 201 l80 28 735 6 c805 6 775 4 905
68 161 80 291 251 325 426 8 43 10 257 8 740 -3 667 -4 681 -25 736 -66 173
-215 320 -405 396 -173 70 -602 110 -983 92z m-389 -383 c149 -69 182 -270 63
-383 -109 -103 -285 -79 -359 50 -55 95 -37 220 43 295 67 64 165 79 253 38z"/>
</g>
</svg>
