<?xml version="1.0" standalone="no"?>
<!DOCTYPE svg PUBLIC "-//W3C//DTD SVG 20010904//EN"
 "http://www.w3.org/TR/2001/REC-SVG-20010904/DTD/svg10.dtd">
<svg version="1.0" xmlns="http://www.w3.org/2000/svg"
 width="48.000000pt" height="48.000000pt" viewBox="0 0 48.000000 48.000000"
 preserveAspectRatio="xMidYMid meet">

<g transform="translate(0.000000,48.000000) scale(0.100000,-0.100000)"
fill="#000000" stroke="none">
<path d="M60 240 l0 -180 180 0 180 0 0 180 0 180 -180 0 -180 0 0 -180z m218
3 c-2 -10 -13 -19 -26 -21 -20 -3 -22 -9 -22 -73 0 -62 -2 -69 -20 -69 -18 0
-20 7 -20 70 0 68 -1 70 -25 70 -18 0 -25 5 -25 20 0 18 7 20 71 20 62 0 70
-2 67 -17z m120 -6 c3 -14 -3 -17 -29 -15 -43 4 -45 -12 -6 -37 23 -15 33 -29
35 -51 4 -41 -16 -56 -70 -52 -35 2 -44 7 -46 25 -3 19 0 21 37 16 46 -6 55 8
17 25 -14 6 -32 23 -42 37 -15 23 -15 27 0 51 15 21 23 25 59 22 31 -2 43 -8
45 -21z"/>
</g>
</svg>
